<svg width="14" height="17" viewBox="0 0 14 17" fill="none" xmlns="http://www.w3.org/2000/svg">
<path d="M11.9999 9.48341V6.83341C11.9987 5.65268 11.5797 4.51047 10.8171 3.60906C10.0545 2.70765 8.99747 2.1052 7.83325 1.90841V1.00008C7.83325 0.779068 7.74545 0.567106 7.58917 0.410826C7.43289 0.254545 7.22093 0.166748 6.99992 0.166748C6.7789 0.166748 6.56694 0.254545 6.41066 0.410826C6.25438 0.567106 6.16658 0.779068 6.16658 1.00008V1.90841C5.00237 2.1052 3.94536 2.70765 3.18274 3.60906C2.42012 4.51047 2.00111 5.65268 1.99992 6.83341V9.48341C1.51363 9.65534 1.09242 9.97347 0.794034 10.3942C0.495651 10.8149 0.334702 11.3176 0.333252 11.8334V13.5001C0.333252 13.7211 0.421049 13.9331 0.57733 14.0893C0.73361 14.2456 0.945571 14.3334 1.16659 14.3334H3.78325C3.97515 15.0396 4.39409 15.6629 4.97542 16.1074C5.55674 16.5518 6.26817 16.7926 6.99992 16.7926C7.73167 16.7926 8.44309 16.5518 9.02442 16.1074C9.60575 15.6629 10.0247 15.0396 10.2166 14.3334H12.8333C13.0543 14.3334 13.2662 14.2456 13.4225 14.0893C13.5788 13.9331 13.6666 13.7211 13.6666 13.5001V11.8334C13.6651 11.3176 13.5042 10.8149 13.2058 10.3942C12.9074 9.97347 12.4862 9.65534 11.9999 9.48341ZM3.66658 6.83341C3.66658 5.94936 4.01777 5.10151 4.6429 4.47639C5.26802 3.85127 6.11586 3.50008 6.99992 3.50008C7.88397 3.50008 8.73182 3.85127 9.35694 4.47639C9.98206 5.10151 10.3333 5.94936 10.3333 6.83341V9.33341H3.66658V6.83341ZM6.99992 15.1667C6.70906 15.165 6.42373 15.0872 6.17228 14.941C5.92083 14.7948 5.71201 14.5853 5.56658 14.3334H8.43325C8.28783 14.5853 8.07901 14.7948 7.82756 14.941C7.57611 15.0872 7.29077 15.165 6.99992 15.1667ZM11.9999 12.6667H1.99992V11.8334C1.99992 11.6124 2.08772 11.4004 2.244 11.2442C2.40028 11.0879 2.61224 11.0001 2.83325 11.0001H11.1666C11.3876 11.0001 11.5996 11.0879 11.7558 11.2442C11.9121 11.4004 11.9999 11.6124 11.9999 11.8334V12.6667Z" fill="white"/>
</svg>
